<?xml version="1.0" encoding="iso-8859-1"?>
<!-- Generator: Adobe Illustrator 19.0.0, SVG Export Plug-In . SVG Version: 6.00 Build 0)  -->
<svg version="1.1" id="Capa_1" xmlns="http://www.w3.org/2000/svg" xmlns:xlink="http://www.w3.org/1999/xlink" x="0px" y="0px"
	 viewBox="0 0 496.485 496.485" style="enable-background:new 0 0 496.485 496.485;" xml:space="preserve">
<rect x="7.758" y="109.382" style="fill:#FFFFFF;" width="480.97" height="294.788"/>
<path style="fill:#193651;" d="M488.727,411.927H7.758c-4.655,0-7.758-3.103-7.758-7.758V109.382c0-4.655,3.103-7.758,7.758-7.758
	h480.97c4.655,0,7.758,3.103,7.758,7.758V404.17C496.485,408.048,493.382,411.927,488.727,411.927z M15.515,396.412H480.97V117.139
	H15.515V396.412z"/>
<rect x="7.758" y="31.03" style="fill:#F16051;" width="480.97" height="79.127"/>
<g>
	<path style="fill:#193651;" d="M488.727,117.139H7.758c-4.655,0-7.758-3.103-7.758-7.758V31.03c0-4.655,3.103-7.758,7.758-7.758
		h480.97c4.655,0,7.758,3.103,7.758,7.758v79.127C496.485,114.036,493.382,117.139,488.727,117.139z M15.515,101.624H480.97V38.788
		H15.515V101.624z"/>
	<path style="fill:#193651;" d="M423.564,60.509c-4.655,0-7.758-3.103-7.758-7.758V7.758c0-4.655,3.103-7.758,7.758-7.758
		c4.655,0,7.758,3.103,7.758,7.758v44.994C431.321,56.63,427.442,60.509,423.564,60.509z"/>
	<path style="fill:#193651;" d="M353.745,60.509c-4.655,0-7.758-3.103-7.758-7.758V7.758c0-4.655,3.103-7.758,7.758-7.758
		s7.758,3.103,7.758,7.758v44.994C361.503,56.63,357.624,60.509,353.745,60.509z"/>
	<path style="fill:#193651;" d="M283.152,60.509c-4.655,0-7.758-3.103-7.758-7.758V7.758c0-4.655,3.103-7.758,7.758-7.758
		s7.758,3.103,7.758,7.758v44.994C290.909,56.63,287.806,60.509,283.152,60.509z"/>
	<path style="fill:#193651;" d="M213.333,60.509c-4.655,0-7.758-3.103-7.758-7.758V7.758c0-4.655,3.103-7.758,7.758-7.758
		c4.655,0,7.758,3.103,7.758,7.758v44.994C221.091,56.63,217.212,60.509,213.333,60.509z"/>
	<path style="fill:#193651;" d="M142.739,60.509c-4.655,0-7.758-3.103-7.758-7.758V7.758c0-4.655,3.103-7.758,7.758-7.758
		c4.655,0,7.758,3.103,7.758,7.758v44.994C150.497,56.63,147.394,60.509,142.739,60.509z"/>
	<path style="fill:#193651;" d="M72.921,60.509c-4.655,0-7.758-3.103-7.758-7.758V7.758C65.164,3.103,68.267,0,72.921,0
		s7.758,3.103,7.758,7.758v44.994C80.679,56.63,77.576,60.509,72.921,60.509z"/>
</g>
<g>
	<rect x="228.848" y="140.412" style="fill:#E1E6E9;" width="38.788" height="38.788"/>
	<rect x="292.461" y="140.412" style="fill:#E1E6E9;" width="38.788" height="38.788"/>
	<rect x="356.073" y="140.412" style="fill:#E1E6E9;" width="38.788" height="38.788"/>
	<rect x="418.909" y="140.412" style="fill:#E1E6E9;" width="38.788" height="38.788"/>
	<rect x="38.788" y="202.473" style="fill:#E1E6E9;" width="38.788" height="38.788"/>
	<rect x="102.4" y="202.473" style="fill:#E1E6E9;" width="38.788" height="38.788"/>
	<rect x="165.236" y="202.473" style="fill:#E1E6E9;" width="38.788" height="38.788"/>
	<rect x="228.848" y="202.473" style="fill:#E1E6E9;" width="38.788" height="38.788"/>
	<rect x="292.461" y="202.473" style="fill:#E1E6E9;" width="38.788" height="38.788"/>
	<rect x="356.073" y="202.473" style="fill:#E1E6E9;" width="38.788" height="38.788"/>
	<rect x="418.909" y="202.473" style="fill:#E1E6E9;" width="38.788" height="38.788"/>
</g>
<circle style="fill:#FDBF5E;" cx="248.242" cy="380.121" r="108.606"/>
<path style="fill:#193651;" d="M248.242,496.485c-64.388,0-116.364-51.976-116.364-116.364s51.976-116.364,116.364-116.364
	s116.364,51.976,116.364,116.364S312.63,496.485,248.242,496.485z M248.242,278.497c-55.855,0-100.848,45.77-100.848,100.849
	c0,55.855,45.77,100.848,100.848,100.848s100.848-45.77,100.848-100.848C349.091,324.267,304.097,278.497,248.242,278.497z"/>
<path style="fill:#FFFFFF;" d="M248.242,457.697c-42.667,0-77.576-34.909-77.576-77.576s34.909-77.576,77.576-77.576
	s77.576,34.909,77.576,77.576S290.909,457.697,248.242,457.697z"/>
<rect x="38.788" y="264.533" style="fill:#E1E6E9;" width="38.788" height="38.788"/>
<rect x="102.4" y="264.533" style="fill:#FFFFFF;" width="38.788" height="38.788"/>
<g>
	<rect x="356.073" y="264.533" style="fill:#E1E6E9;" width="38.788" height="38.788"/>
	<rect x="418.909" y="264.533" style="fill:#E1E6E9;" width="38.788" height="38.788"/>
	<rect x="38.788" y="334.352" style="fill:#E1E6E9;" width="38.788" height="38.788"/>
</g>
<polygon style="fill:#193651;" points="280.824,345.212 236.606,389.43 215.661,369.261 200.145,384 236.606,420.461 
	296.339,360.727 "/>
<g>
</g>
<g>
</g>
<g>
</g>
<g>
</g>
<g>
</g>
<g>
</g>
<g>
</g>
<g>
</g>
<g>
</g>
<g>
</g>
<g>
</g>
<g>
</g>
<g>
</g>
<g>
</g>
<g>
</g>
</svg>
