<svg id="Capa_1" enable-background="new 0 0 497.014 497.014" height="512" viewBox="0 0 497.014 497.014" width="512" xmlns="http://www.w3.org/2000/svg"><g><path d="m184.594 144.489v-62.288l-80.161 1v62.335c0 17.807-10.044 33.923-25.753 42.228-45.364 23.983-74.651 70.287-74.953 125.214-.355 64.613 41.295 117.212 99.064 135.633 12.904 4.115 25.291 9.288 39.684 9.39 79.73.566 144.539-64.07 144.539-143.885 0-55.454-31.288-103.573-77.126-127.593-15.585-8.167-25.294-24.402-25.294-42.034z" fill="#f1f2f2"/><path d="m153.524 457.655c-72.255-5.022-130.069-64.289-133.361-137.015 2.319-52.526 32.719-97.723 76.521-120.875 15.71-8.31 25.75-24.42 25.75-42.23v-13-62.33h-20v62.33c0 17.81-10.04 33.92-25.75 42.23-45.37 23.98-76.37 71.61-76.67 126.54-.762 52.422 29.823 103.292 76.11 127.74-.007-.005-.013-.011-.02-.016 19.831 10.668 42.416 16.806 66.37 16.976 3.72.03 7.4-.09 11.05-.35z" fill="#dee1e1"/><path d="m192.979 82.018h-98.93c-6.627 0-12-5.373-12-12v-18.013c0-6.627 5.373-12 12-12l5.005-1h94.925c6.627 0 12 5.373 12 12v14.01l-1 5.003c0 6.627-5.373 12-12 12z" fill="#f1f2f2"/><path d="m205.974 65.015v6c0 6.627-5.373 12-12 12h-100.92c-6.627 0-12-5.373-12-12v-20.01c0-6.627 5.373-12 12-12h6v18.01c0 4.418 3.582 8 8 8z" fill="#dee1e1"/><path d="m41.769 318.909c.187 59.736 39.835 101.408 99.404 102.239 20.247.283 40.035-2.097 56.418-11.418 33.235-18.91 55.657-54.712 55.657-95.766 0-.035 0-.071 0-.106-.005-5.191-4.981-8.935-9.98-7.583-10.447 2.825-28.079 6.746-45.454 6.746-27.154 0-27.154-9.574-54.308-9.574-27.15 0-27.15 9.574-54.301 9.574-12.578 0-25.29-2.066-35.313-4.283-3.986-.882-4.664 1.538-7.622.728-4.808-1.317-4.502 9.15-4.501 9.443z" fill="#b4e3f5"/><path d="m202.194 406.955c-17.38 11.06-38.07 17.34-60.24 17.03-59.57-.83-107.99-49.93-108.17-109.67-.01-.29-.01-.58 0-.88.02-5 4.8-8.61 9.6-7.3 2.96.81 6.52 1.72 10.51 2.6 2.48 57.72 49.97 104.44 108.06 105.25 14.18.2 27.75-2.3 40.24-7.03z" fill="#83d3f0"/><path d="m183.816 237.351c0-15.277-12.351-27.661-27.586-27.661-4.681 0-9.09 1.169-12.952 3.232-8.707 4.651-13.338 13.616-13.338 24.199 0 15.277 11.055 26.298 26.29 26.298 11.932 0 22.095-6.003 25.941-16.636 1.064-2.943 1.645-6.119 1.645-9.432z" fill="#b4e3f5"/><path d="m182.174 246.785c-3.85 10.63-14.01 18.23-25.94 18.23-15.24 0-27.59-12.39-27.59-27.66 0-10.59 5.93-19.78 14.64-24.42-1.06 2.94-1.64 6.11-1.64 9.42 0 15.27 12.35 27.66 27.59 27.66 4.68 0 9.08-1.17 12.94-3.23z" fill="#83d3f0"/><path d="m160.827 371.047c0-9.588-7.751-17.36-17.313-17.36-1.343 0-2.65.153-3.905.443-7.681 1.776-12.222 8.823-12.222 17.064 0 9.588 7.289 15.799 16.851 15.799 8.867 0 15.454-5.271 16.469-13.888.079-.674.12-1.361.12-2.058z" fill="#83d3f0"/><path d="m108.322 312.978c0-.798.811-1.586.732-2.363-1.18-11.656-10.997-20.751-22.933-20.751-3.783 0-7.352.914-10.502 2.533-7.451 3.83-11.552 11.753-11.552 20.726 0 12.766 9.327 21.787 22.059 21.787s22.196-9.166 22.196-21.932z" fill="#b4e3f5"/><path d="m104.021 327.54c.994-1.236 1.863-2.561 2.592-3.975-.001 0-.002.001-.003.001 1.984-3.793 2.923-8.492 2.443-12.951-4.98 1.38-10.96 2.41-19.85 2.41-2.226 0-4.454-.066-6.671-.186-5.211-.282-9.437-4.547-9.459-9.765 0-.033 0-.066 0-.099 0-3.81.92-7.4 2.55-10.57-6.776 3.474-11.594 10.229-12.413 18.171-.002 0-.005-.001-.007-.001-.073.799-.132 1.593-.13 2.4 0 12.77 10.32 23.12 23.05 23.12 6.866.032 13.61-3.199 17.898-8.555z" fill="#83d3f0"/><path d="m160.694 373.105c-1 8.62-8.31 15.3-17.18 15.3-9.56 0-17.31-7.77-17.31-17.36 0-8.5 6.09-15.57 14.13-17.06-.09.68-.13 1.36-.13 2.06 0 9.59 7.75 17.36 17.31 17.36 1.09 0 2.15-.1 3.18-.3z" fill="#4cb8e9"/><path d="m380.514 379.76c-20.711 0-34.915-17.843-34.915-38.553l-1.145-223.34 29.91-2.872 43.649 3.011v225.5c0 18.748-13.758 34.283-31.728 37.059-1.881.289-3.808-.805-5.771-.805z" fill="#f1f2f2"/><path d="m388.014 380.255c-2.42.49-4.93.75-7.5.75-20.71 0-37.5-16.79-37.5-37.5v-49.14l3.096-7.5-3.096-7.5v-15l2.202-8.775-2.202-6.225v-15l1.947-6.988-1.947-8.012v-101.36l8.032-4.032 6.968 4.032v225.5c0 18.14 12.88 33.28 30 36.75z" fill="#dee1e1"/><path d="m451.301 186.148h26.213v235h-26.213z" fill="#b4e3f5"/><path d="m447.514 186.145h14v235h-14z" fill="#83d3f0"/><path d="m419.014 117.005h-77c-6.627 0-12-5.373-12-12v-15c0-6.627 5.373-12 12-12l2-1h76c6.627 0 12 5.373 12 12v14l-1 2c0 6.627-5.373 12-12 12z" fill="#f1f2f2"/><path d="m432.014 103.005v3c0 6.627-5.373 12-12 12h-79c-6.627 0-12-5.373-12-12v-17c0-6.627 5.373-12 12-12h3v17c0 4.971 4.029 9 9 9z" fill="#dee1e1"/><path d="m485.014 194.505h-167c-5.523 0-10-4.477-10-10l-.968-16.489c0-5.523 4.477-10 10-10l4.968-1.511h165c5.523 0 10 4.477 10 10v14l-2 4c0 5.523-4.477 10-10 10z" fill="#b4e3f5"/><path d="m497.014 180.505v6c0 5.523-4.477 10-10 10h-171c-5.523 0-10-4.477-10-10v-20c0-5.523 4.477-10 10-10h6v20c0 2.209 1.791 4 4 4z" fill="#83d3f0"/><path d="m486.014 457.005h-169c-5.523 0-10-4.477-10-10v-23c0-5.523 4.477-10 10-10l6-1h164c5.523 0 10 4.477 10 10v18l-1 6c0 5.523-4.477 10-10 10z" fill="#b4e3f5"/><path d="m497.014 441.005v7c0 5.523-4.477 10-10 10h-171c-5.523 0-10-4.477-10-10v-25c0-5.523 4.477-10 10-10h7v24c0 2.209 1.791 4 4 4z" fill="#83d3f0"/><g><g><path d="m380.504 286.865c0 4.14-3.36 7.5-7.5 7.5h-29.99l3.096-7.5-3.096-7.5h29.99c4.14 0 7.5 3.36 7.5 7.5z" fill="#dee1e1"/></g><g><path d="m370.504 256.865c0 4.14-3.36 7.5-7.5 7.5h-19.99l2.153-7.5-2.153-7.5h19.99c4.14 0 7.5 3.36 7.5 7.5z" fill="#dee1e1"/></g><g><path d="m380.504 226.865c0 4.14-3.36 7.5-7.5 7.5h-29.99l3.479-6.605-3.479-8.395h29.99c4.14 0 7.5 3.36 7.5 7.5z" fill="#dee1e1"/></g></g><g><g><path d="m343.014 279.365h15v15h-15z" fill="#cacbcb"/></g><g><path d="m343.014 249.365h15v15h-15z" fill="#cacbcb"/></g><g><path d="m343.014 219.365h15v15h-15z" fill="#cacbcb"/></g></g></g></svg>