<svg id="Capa_1" enable-background="new 0 0 512 512" height="512" viewBox="0 0 512 512" width="512" xmlns="http://www.w3.org/2000/svg"><g><g><g><g><g><g><g><circle cx="256" cy="256" fill="#ff6c52" r="256"/></g></g></g></g></g></g><path d="m512 256c0-17.127-1.682-33.861-4.89-50.046l-99.519-99.784-294.075 279.182 33.548 33.548-13.234 11.89 77.288 77.289c14.572 2.576 29.57 3.921 44.882 3.921 141.385 0 256-114.615 256-256z" fill="#e50a0a"/><g><g><path d="m345.417 255.231c0-67.882-61.913-122.911-138.286-122.911s-138.286 55.03-138.286 122.911c0 26.095 9.149 50.29 24.751 70.19-1.239 4.705-1.899 9.645-1.899 14.739 0 23.962 14.602 44.513 35.393 53.241v23.116c0 10.208 8.275 18.482 18.482 18.482h123.118c10.208 0 18.482-8.275 18.482-18.482v-23.116c20.791-8.728 35.393-29.279 35.393-53.241 0-5.094-.66-10.034-1.899-14.739 15.602-19.9 24.751-44.095 24.751-70.19z" fill="#fff"/></g><g><path d="m345.417 255.231c0-67.882-61.913-122.911-138.286-122.911-.136 0-.272.004 0 .004v302.676h61.559c10.208 0 18.482-8.275 18.482-18.482v-23.116c20.791-8.728 35.393-29.279 35.393-53.241 0-5.094-.66-10.034-1.899-14.739 15.602-19.901 24.751-44.096 24.751-70.191z" fill="#e9edf5"/></g><g><g><path d="m221.849 323.023c3.668 21.278 23.817 35.125 45.095 31.457s36.937-15.865 33.268-37.142-40.475-32.033-61.753-28.364c-17.122 2.951-20.278 12.771-16.61 34.049z" fill="#414952"/></g><g><path d="m192.413 323.023c-3.668 21.278-23.817 35.125-45.095 31.457s-36.937-15.865-33.268-37.142 40.475-32.033 61.753-28.364c17.123 2.951 20.279 12.771 16.61 34.049z" fill="#636978"/></g></g><g><path d="m208.047 346.471c-.323 0-1.508 0-1.832 0-6.182 0-16.791 24.042-16.791 30.225 0 6.182 5.012 11.194 11.194 11.194 2.429 0 4.678-.774 6.513-2.089 1.835 1.314 4.083 2.089 6.513 2.089 6.182 0 11.194-5.012 11.194-11.194 0-6.183-10.609-30.225-16.791-30.225z" fill="#636978"/></g><g><path d="m208.047 346.471h-.916v39.33c1.835 1.314 4.083 2.089 6.513 2.089 6.182 0 11.194-5.012 11.194-11.194 0-6.183-10.609-30.225-16.791-30.225z" fill="#414952"/></g></g><g><g><g><circle cx="335.431" cy="178.801" fill="#fff" r="80.995"/></g></g><g><g><path d="m335.431 97.807c-.003 0-.006 0-.009 0v161.989h.009c44.732 0 80.995-36.263 80.995-80.995s-36.262-80.994-80.995-80.994z" fill="#e9edf5"/></g></g><g><g><path d="m335.431 281.233c-56.48 0-102.431-45.951-102.431-102.432s45.951-102.431 102.432-102.431 102.431 45.951 102.431 102.431c0 56.481-45.951 102.432-102.432 102.432zm0-176.724c-40.965 0-74.292 33.327-74.292 74.292s33.327 74.292 74.292 74.292 74.292-33.327 74.292-74.292c.001-40.964-33.327-74.292-74.292-74.292z" fill="#636978"/></g></g><g><g><path d="m335.431 76.37c-.003 0-.006 0-.009 0v28.14h.009c40.965 0 74.292 33.328 74.292 74.292 0 40.965-33.327 74.292-74.292 74.292-.003 0-.006 0-.009 0v28.14h.009c56.481 0 102.432-45.951 102.432-102.432s-45.951-102.432-102.432-102.432z" fill="#414952"/></g></g><g><g><path d="m370.734 188.002c-.035-8.785-7.167-15.882-15.944-15.882-.022 0-.044 0-.065 0-3.466.012-9.696-.404-12.302-3.361-2.252-2.556-2.251-7.306-2.064-8.905.275-1.686 2.265-16.463-12.065-18.838-16.909-2.804-19.425 13.784-19.425 13.784-.045.27-.129.824-.214 1.616l-3.564.051c-5.18.074-9.319 4.333-9.245 9.513.073 5.134 4.258 9.246 9.376 9.246.045 0 .091 0 .136-.001l5.046-.072c.94 3.103 2.293 6.315 4.217 9.447l-4.729 4.055c-3.933 3.372-4.387 9.294-1.015 13.226 1.855 2.164 4.482 3.274 7.125 3.274 2.161 0 4.333-.743 6.101-2.26l6.05-5.188c4.067 2.334 8.376 3.861 12.605 4.826l-.443 6.101c-.375 5.167 3.509 9.659 8.676 10.035.231.017.461.025.689.025 4.872 0 8.987-3.766 9.345-8.701l.486-6.693c6.525-2.021 11.251-8.114 11.223-15.298z" fill="#10b8e0"/></g><g><path d="m354.79 172.12c-.022 0-.044 0-.065 0-3.466.012-9.696-.404-12.302-3.361-2.252-2.556-2.251-7.307-2.064-8.905.216-1.326 1.487-10.737-4.937-15.858v57.001c1.777.62 3.564 1.13 5.337 1.535l-.443 6.101c-.375 5.167 3.509 9.659 8.676 10.035.231.017.461.025.689.025 4.872 0 8.987-3.766 9.345-8.701l.486-6.693c6.523-2.021 11.25-8.113 11.222-15.297-.035-8.785-7.167-15.882-15.944-15.882z" fill="#00a2db"/></g><g><circle cx="378.807" cy="141.015" fill="#00a2db" r="7.246"/></g><g><path d="m279.124 176.999c-2.768 0-5.013 2.244-5.013 5.013s2.244 5.013 5.013 5.013 5.013-2.244 5.013-5.013-2.245-5.013-5.013-5.013z" fill="#10b8e0"/></g><g><circle cx="375.348" cy="218.998" fill="#00a2db" r="10.705"/></g><g><ellipse cx="307.82" cy="224.096" fill="#10b8e0" rx="10.705" ry="10.705" transform="matrix(.851 -.526 .526 .851 -71.841 195.3)"/></g><g><circle cx="324.336" cy="121.594" fill="#10b8e0" r="9.326"/></g></g></g></g></svg>