<svg id="Layer_1" enable-background="new 0 0 512 512" height="512" viewBox="0 0 512 512" width="512" xmlns="http://www.w3.org/2000/svg"><g><g id="XMLID_599_"><g><g id="XMLID_1379_"><g id="XMLID_1380_"><g id="XMLID_1381_"><g id="XMLID_1382_"><g id="XMLID_1383_"><g id="XMLID_1384_"><g id="XMLID_1385_"><g id="XMLID_1386_"><g id="XMLID_1387_"><g id="XMLID_1388_"><g id="XMLID_1389_"><g id="XMLID_1391_"><g id="XMLID_1392_"><g id="XMLID_1407_"><circle cx="256" cy="256" fill="#ff637b" r="256"/></g></g></g></g></g></g></g></g></g></g></g></g></g></g></g></g><path d="m512 256c0-17.164-1.703-33.929-4.924-50.146l-101.851-101.852-312.391 232.288 55.363 55.532s12.163 40.977 23.98 51.382l68.314 68.314c5.133.308 10.3.482 15.509.482 141.385 0 256-114.615 256-256z" fill="#e03b5a"/><g><path d="m439.487 158.567-14.401-26.833c-17.334-32.297-46.477-55.163-80.236-62.955-58.574-13.519-119.126-13.519-177.7 0-33.759 7.792-62.902 30.658-80.236 62.954l-14.402 26.834c-16.92 31.525-21.067 69.207-11.462 104.149l10.936 39.785c5.327 19.381 18.257 35.25 35.361 43.401l20.431 9.736c10.141 4.832 17.315 14.912 19.043 26.754l2.647 18.139c3.144 21.546 15.311 39.437 31.935 49.455 7.294 4.395 16.596-.851 16.596-9.367v-36.484h37v43.598c0 6.04 4.896 10.937 10.937 10.937h10.064 10.063c6.04 0 10.937-4.896 10.937-10.937v-43.598h37v36.485c0 8.516 9.302 13.762 16.596 9.367 16.625-10.018 28.792-27.909 31.936-49.455l2.647-18.14c1.728-11.842 8.902-21.921 19.043-26.753l20.431-9.736c17.104-8.15 30.033-24.02 35.361-43.401l10.936-39.784c9.604-34.944 5.457-72.626-11.463-104.151z" fill="#fff"/><path d="m450.95 262.72-10.94 39.78c-5.32 19.38-18.25 35.25-35.36 43.4l-20.43 9.74c-10.14 4.83-17.31 14.91-19.04 26.75l-2.65 18.14c-3.14 21.55-15.31 39.44-31.93 49.46-7.3 4.39-16.6-.85-16.6-9.37v-36.49h-37v43.6c0 6.04-4.9 10.94-10.94 10.94h-10.06v-400.03c29.78 0 59.56 3.38 88.85 10.14 33.76 7.79 62.9 30.66 80.24 62.95l14.4 26.84c16.92 31.52 21.06 69.2 11.46 104.15z" fill="#cffffb"/><g><path d="m186.071 231.529h-9.242c-23.077 0-41.959-18.881-41.959-41.958v-9.242c0-23.077 18.881-41.958 41.959-41.958h9.242c23.077 0 41.958 18.881 41.958 41.958v9.242c.001 23.077-18.881 41.958-41.958 41.958z" fill="#3d5d72"/><path d="m335.171 231.529h-9.242c-23.077 0-41.959-18.881-41.959-41.958v-9.242c0-23.077 18.881-41.958 41.959-41.958h9.242c23.077 0 41.958 18.881 41.958 41.958v9.242c0 23.077-18.881 41.958-41.958 41.958z" fill="#324a5e"/></g><path d="m245.251 266.691-28.072 49.12c-4.717 8.253 1.242 18.523 10.749 18.523h56.145c9.506 0 15.465-10.27 10.749-18.523l-28.073-49.12c-4.753-8.316-16.745-8.316-21.498 0z" fill="#3d5d72"/><path d="m284.07 334.33h-28.07v-73.88c4.19 0 8.38 2.08 10.75 6.24l28.07 49.12c4.72 8.25-1.24 18.52-10.75 18.52z" fill="#324a5e"/></g></g></svg>