<svg id="Layer_3" enable-background="new 0 0 64 64" height="512" viewBox="0 0 64 64" width="512" xmlns="http://www.w3.org/2000/svg"><g><circle cx="32" cy="30" fill="#c7e2fc" r="28"/><path d="m5.859 19.946c1.122-2.915 2.717-5.595 4.692-7.946h4.949c1.381 0 2.5 1.119 2.5 2.5 0 1.381-1.119 2.5-2.5 2.5h-2c-.828 0-1.5.672-1.5 1.5 0 .828-.672 1.5-1.5 1.5h-4.5z" fill="#669e4f"/><path d="m59.841 27h-14.841v-7c0-1.105.895-2 2-2 1.105 0 2-.895 2-2v-1c0-1.105.895-2 2-2h3.25l-.066-.086c3.072 3.983 5.096 8.816 5.657 14.086z" fill="#96cc7f"/><path d="m23 3.478v4.522c0 1.63.792 3.065 2 3.977v3.102c0 1.109.932 1.898 2.041 1.921 1.085.022 1.959.909 1.959 2 0 1.105-.895 2-2 2h-7-.366c-.918 0-1.779.465-2.253 1.194v5.806h14.619v-3.442c0-.823.638-1.58 1.461-1.559.846.022 1.539-.657 1.539-1.499 0-.828.672-1.5 1.5-1.5h2.5c1.105 0 2-.895 2-2l-.001-14.522v-.001c-2.824-.957-5.851-1.477-8.999-1.477s-6.175.52-9 1.478z" fill="#78b75b"/><path d="m54 44v12c0 1.105-.895 2-2 2-1.105 0-2-.895-2-2v-4c0-1.105-.895-2-2-2-1.105 0-2 .895-2 2v4c0 1.105-.895 2-2 2-1.105 0-2-.895-2-2v-12c0 1.105-.895 2-2 2-1.105 0-2-.895-2-2v-7c0-2.761 2.239-5 5-5h10c2.761 0 5 2.239 5 5v7c0 1.105-.895 2-2 2-1.105 0-2-.895-2-2z" fill="#758190"/><circle cx="48" cy="27" fill="#758190" r="5"/><circle cx="40" cy="29" fill="#8892a0" r="5"/><path d="m46 46v12c0 1.105-.895 2-2 2-1.105 0-2-.895-2-2v-4c0-1.105-.895-2-2-2-1.105 0-2 .895-2 2v4c0 1.105-.895 2-2 2-1.105 0-2-.895-2-2v-12c0 1.105-.895 2-2 2-1.105 0-2-.895-2-2v-7c0-2.761 2.239-5 5-5h10c2.761 0 5 2.239 5 5v7c0 1.105-.895 2-2 2-1.105 0-2-.895-2-2z" fill="#8892a0"/><path d="m10 44v12c0 1.105.895 2 2 2 1.105 0 2-.895 2-2v-4c0-1.105.895-2 2-2 1.105 0 2 .895 2 2v4c0 1.105.895 2 2 2 1.105 0 2-.895 2-2v-12c0 1.105.895 2 2 2 1.105 0 2-.895 2-2v-7c0-2.761-2.239-5-5-5h-10c-2.761 0-5 2.239-5 5v7c0 1.105.895 2 2 2 1.105 0 2-.895 2-2z" fill="#758190"/><circle cx="16" cy="27" fill="#758190" r="5"/><circle cx="24" cy="29" fill="#8892a0" r="5"/><path d="m18 46v12c0 1.105.895 2 2 2 1.105 0 2-.895 2-2v-4c0-1.105.895-2 2-2 1.105 0 2 .895 2 2v4c0 1.105.895 2 2 2 1.105 0 2-.895 2-2v-12c0 1.105.895 2 2 2 1.105 0 2-.895 2-2v-7c0-2.761-2.239-5-5-5h-10c-2.761 0-5 2.239-5 5v7c0 1.105.895 2 2 2 1.105 0 2-.895 2-2z" fill="#8892a0"/><path d="m38 48v12c0 1.105-.895 2-2 2-1.105 0-2-.895-2-2v-4c0-1.105-.895-2-2-2-1.105 0-2 .895-2 2v4c0 1.105-.895 2-2 2-1.105 0-2-.895-2-2v-12c0 1.105-.895 2-2 2-1.105 0-2-.895-2-2v-7c0-2.761 2.239-5 5-5h10c2.761 0 5 2.239 5 5v7c0 1.105-.895 2-2 2-1.105 0-2-.895-2-2z" fill="#a8b0bc"/><circle cx="32" cy="31" fill="#a8b0bc" r="5"/><path d="m61 30c0-15.99-13.01-29-29-29s-29 13.01-29 29c0 3.658.674 7.218 1.998 10.59v3.41c0 1.654 1.346 3 3 3 .352 0 .686-.072 1-.184v9.184c0 1.654 1.346 3 3 3s3-1.346 3-3v-4c0-.552.448-1 1-1s1 .448 1 1v6c0 1.654 1.346 3 3 3s3-1.346 3-3v-4c0-.552.448-1 1-1s1 .448 1 1h.002v6c0 1.654 1.346 3 3 3s3-1.346 3-3v-4c0-.552.448-1 1-1s1 .448 1 1v4c0 1.654 1.346 3 3 3s3-1.346 3-3v-6c0-.552.448-1 1-1s1 .448 1 1v4c0 1.654 1.346 3 3 3s3-1.346 3-3v-6c0-.552.448-1 1-1s1 .448 1 1v4c0 1.654 1.346 3 3 3s3-1.346 3-3v-9.184c.314.112.648.184 1 .184 1.654 0 3-1.346 3-3v-3.406c1.325-3.375 2-6.936 2-10.594zm-2.428 4.787c-.883-2.215-3.045-3.787-5.572-3.787h-.542c.742-.827 1.257-1.858 1.45-3h5.01c.049.661.082 1.327.082 2 0 1.62-.147 3.218-.428 4.787zm-46.572-7.787c0-2.206 1.794-4 4-4 1.458 0 2.795.804 3.494 2.052-.927 1.056-1.494 2.435-1.494 3.948 0 .467.059.919.16 1.356-.641.414-1.387.644-2.16.644-2.206 0-4-1.794-4-4zm8 2c0-2.206 1.794-4 4-4 1.458 0 2.795.804 3.493 2.052-.926 1.056-1.493 2.436-1.493 3.948 0 .467.059.92.16 1.357-.641.412-1.387.643-2.16.643-2.206 0-4-1.794-4-4zm8 2c0-2.206 1.794-4 4-4s4 1.794 4 4-1.794 4-4 4-4-1.794-4-4zm8.505-3.95c.699-1.247 2.035-2.05 3.493-2.05 2.206 0 4 1.794 4 4s-1.794 4-4 4c-.772 0-1.518-.23-2.159-.642.102-.437.161-.89.161-1.358 0-1.513-.567-2.893-1.495-3.95zm22.197-1.05h-4.794c-.478-2.833-2.942-5-5.91-5-.694 0-1.365.132-1.998.358v-1.358c0-.552.448-1 1-1 1.654 0 3-1.346 3-3v-1c0-.552.448-1 1-1h2.732c2.557 3.464 4.307 7.556 4.97 12zm-14.198-.948c.699-1.248 2.037-2.052 3.494-2.052 2.206 0 4 1.794 4 4s-1.794 4-4 4c-.773 0-1.519-.231-2.16-.643.101-.437.16-.889.16-1.357 0-1.513-.567-2.892-1.494-3.948zm7.599-13.052h-1.103c-1.654 0-3 1.346-3 3v1c0 .552-.448 1-1 1-1.654 0-3 1.346-3 3v2.544c-.403.36-.752.778-1.048 1.239-.873-.496-1.88-.783-2.954-.783-2.066 0-3.957 1.086-5.045 2.783-.595-.338-1.254-.575-1.953-.693v-.532c0-.165.071-.337.186-.449.076-.073.158-.11.242-.11h.007c.68.011 1.323-.233 1.81-.708.486-.475.755-1.11.755-1.791 0-.275.225-.5.5-.5h2.5c1.654 0 3-1.346 3-3v-13.072c3.895 1.559 7.346 3.996 10.103 7.072zm-12.103-7.79v13.79c0 .552-.448 1-1 1h-2.5c-1.379 0-2.5 1.121-2.5 2.5 0 .184-.095.304-.151.358-.055.054-.172.142-.349.142-.005 0-.01-.001-.014-.001-.627.01-1.231.226-1.697.679-.501.489-.789 1.175-.789 1.881v.532c-.7.118-1.359.355-1.954.694-1.088-1.699-2.98-2.785-5.046-2.785-1.074 0-2.081.287-2.954.784-.446-.696-1.019-1.293-1.695-1.749.094-.016.188-.035.284-.035h7.365c1.654 0 3-1.346 3-3 0-1.62-1.318-2.966-2.939-3-.515-.01-1.061-.336-1.061-.92v-3.103c0-.313-.146-.608-.397-.798-1.019-.769-1.603-1.928-1.603-3.179v-3.79c2.529-.786 5.216-1.21 8-1.21s5.471.424 8 1.21zm-28.956 8.79h4.456c.827 0 1.5.673 1.5 1.5s-.673 1.5-1.5 1.5h-2c-1.379 0-2.5 1.121-2.5 2.5 0 .275-.225.5-.5.5h-3.148c.97-2.165 2.213-4.181 3.692-6zm-4.496 8h3.952c1.379 0 2.5-1.121 2.5-2.5 0-.275.225-.5.5-.5h2c1.93 0 3.5-1.57 3.5-3.5s-1.57-3.5-3.5-3.5h-2.662c2.585-2.607 5.699-4.686 9.162-6.072v3.072c0 1.713.723 3.308 2 4.449v2.631c0 1.604 1.327 2.887 3.021 2.92.54.011.979.46.979 1 0 .552-.448 1-1 1h-7.365c-.997 0-1.949.409-2.63 1.091-.33-.056-.664-.091-1.005-.091-3.309 0-6 2.691-6 6 0 1.538.586 2.937 1.54 4h-.542c-2.526 0-4.687 1.57-5.571 3.784-.28-1.568-.427-3.165-.427-4.784 0-3.155.549-6.183 1.548-9zm9.45 28c-1.654 0-3 1.346-3 3v4c0 .552-.448 1-1 1s-1-.448-1-1v-12-7h-2v7c0 .552-.448 1-1 1s-1-.448-1-1v-7c0-2.206 1.794-4 4-4h5 .002c1.042 0 2.049-.282 2.942-.786.178.279.378.541.598.786h-.542c-3.309 0-6 2.691-6 6v7c0 1.654 1.346 3 3 3 .352 0 .686-.072 1-.184v.369c-.314-.113-.648-.185-1-.185zm8 2c-1.654 0-3 1.346-3 3v4c0 .552-.448 1-1 1s-1-.448-1-1v-12-7h-2v7c0 .552-.448 1-1 1s-1-.448-1-1v-7c0-2.206 1.794-4 4-4h5 .002c1.041 0 2.049-.282 2.942-.786.178.279.378.541.598.786h-.54c-3.309 0-6 2.691-6 6v7c0 1.654 1.346 3 3 3 .352 0 .686-.072 1-.184v.369c-.315-.113-.649-.185-1.002-.185zm13.002 9c0 .552-.448 1-1 1s-1-.448-1-1v-4c0-1.654-1.346-3-3-3s-3 1.346-3 3v4c0 .552-.448 1-1 1s-1-.448-1-1v-12-7h-2v7c0 .552-.448 1-1 1s-1-.448-1-1v-7c0-2.206 1.794-4 4-4h10c2.206 0 4 1.794 4 4v7c0 .552-.448 1-1 1s-1-.448-1-1v-7h-2v7zm8-2c0 .552-.448 1-1 1s-1-.448-1-1v-4c0-1.654-1.346-3-3-3-.352 0-.686.072-1 .184v-.369c.314.113.648.185 1 .185 1.654 0 3-1.346 3-3v-7c0-3.309-2.691-6-6-6h-.54c.22-.245.42-.506.598-.785.892.503 1.9.785 2.94.785h.002 5c2.206 0 4 1.794 4 4v7c0 .552-.448 1-1 1s-1-.448-1-1v-7h-2v7zm12-14c0 .552-.448 1-1 1s-1-.448-1-1v-7h-2v7 12c0 .552-.448 1-1 1s-1-.448-1-1v-4c0-1.654-1.346-3-3-3-.352 0-.686.072-1 .184v-.369c.314.113.648.185 1 .185 1.654 0 3-1.346 3-3v-7c0-3.309-2.691-6-6-6h-.542c.22-.245.421-.507.598-.786.893.504 1.901.786 2.942.786h.002 5c2.206 0 4 1.794 4 4z"/></g></svg>