<?xml version="1.0"?>
<svg xmlns="http://www.w3.org/2000/svg" id="Layer_1" data-name="Layer 1" viewBox="0 0 512 512" width="512" height="512"><title>recovered heart patient </title><path d="M300.887,358.385a106.078,106.078,0,0,1,90.919-104.854,105.92,105.92,0,1,0,0,209.706A106.078,106.078,0,0,1,300.887,358.385Z" style="fill:#d4e1f4"/><path d="M187.865,163.312c11.559,0,24.629-3.274,39.088-9.813,26.8-12.122,43.645-25.259,54.144-36.316a62.085,62.085,0,0,0-8.027-9.541,82.168,82.168,0,0,0-9.028-7.651c-6.611,11.863-23.956,34-67.089,53.508a119.047,119.047,0,0,1-23.236,7.971A52.783,52.783,0,0,0,187.865,163.312Z" style="fill:#d4e1f4"/><path d="M205.931,276.058c-23.628-14.917-26.787-44.277-27.18-50.01a7.048,7.048,0,0,0-7-6.719l-.28,0c-8.36,0-20.332-13.036-24.962-32.629-1.435-6.083.453-10.226,2.815-11.5,2.676-1.446,5.524,1.093,6.624,2.253a7,7,0,0,0,10.813-8.833,37.045,37.045,0,0,1-2.023-5.678,66.214,66.214,0,0,1-6.874.37,49.639,49.639,0,0,1-21.643-4.635c-1.095-.523-2.138-1.08-3.139-1.663,1.481,5.58,2.829,10.031,3.679,11.606a7,7,0,0,1-10.813,8.833c-1.1-1.16-3.948-3.7-6.624-2.253-2.362,1.277-4.25,5.42-2.815,11.5,4.63,19.593,16.6,32.629,24.962,32.629l.28,0a7.048,7.048,0,0,1,7,6.719c.393,5.733,3.552,35.093,27.18,50.01,9.324,5.892,20.922,8.878,34.475,8.878a80.68,80.68,0,0,0,15.1-1.356A56.276,56.276,0,0,1,205.931,276.058Z" style="fill:#d4e1f4"/><path d="M62.887,444.679v-43.2c0-21.887,10.371-38.322,32.639-51.721,20.153-12.128,46.528-19.419,69.8-25.853,9.046-2.5,17.591-4.863,25.277-7.364a7,7,0,0,0,4.184-3.711l6.633-14.3a76.369,76.369,0,0,1-26.684-7.149l-9.949,21.449a7,7,0,0,1-4.184,3.711c-7.686,2.5-16.231,4.863-25.277,7.364-23.27,6.434-49.645,13.725-69.8,25.853-22.268,13.4-32.639,29.834-32.639,51.721v43.2c0,5.949,11.568,16.321,18.2,16.321h30C74.455,461,62.887,450.628,62.887,444.679Z" style="fill:#d4e1f4"/><path d="M373.887,461H51.09c-6.635,0-18.2-10.372-18.2-16.321v-43.2c0-21.887,10.371-38.322,32.639-51.721,20.153-12.128,46.528-19.419,69.8-25.853q4.344-1.2,8.516-2.368c5.245,21.294,27.878,50.584,66.566,50.584,31.935,0,54.04-20.413,63.266-37.893a7,7,0,0,0-12.382-6.536c-7.408,14.037-25.179,30.429-50.884,30.429-33.019,0-49.744-25.925-53.105-40.532,1.115-.347,2.218-.7,3.3-1.048a7,7,0,0,0,4.184-3.711l9.949-21.449c10.293,5.013,22.254,7.555,35.672,7.555,13.851,0,26.142-2.647,36.645-7.861l6.96,19.741a7,7,0,0,0,4.343,4.3c4.068,1.387,8.643,2.828,13.985,4.406a7,7,0,1,0,3.967-13.425c-3.788-1.119-7.165-2.163-10.23-3.164l-6.925-19.64c19.393-15.822,24.831-39.256,26.351-50.8,14.178-3.835,27.207-20.5,32.426-42.58,2.808-11.932-1.305-23.039-10.237-27.642a17.281,17.281,0,0,0-8.034-1.94c.464-3.472.947-7.721,1.448-12.944,1.167-12.179,1.912-24.48,1.912-27.6,0-13.04-4.441-32.829-16.9-49.263-20.738-27.344-53.466-33.083-77.27-33.083-23.414,0-55.951,5.354-77.991,30.859-17.352,20.08-21.124,44.6-19.427,56.185.062.419.435,2.393,1.031,5.34a7,7,0,0,0,.192,1.149c.016.06.065.241.145.506,1.526,7.436,4.13,19.4,6.821,29.3a17.672,17.672,0,0,0-6.945,2.1c-8.574,4.634-12.505,15.5-9.783,27.036,5.227,22.121,18.293,38.8,32.5,42.6,1.673,11.555,7.484,35.512,27.4,51.342l-9.413,20.29c-6.658,2.08-14.034,4.12-21.785,6.262C84.029,323.561,18.887,341.57,18.887,401.479v43.2c0,14.639,18.9,30.321,32.2,30.321h322.8a7,7,0,0,0,0-14ZM141.444,77.459c14.915-17.261,37.591-26.013,67.4-26.013,30.01,0,52.255,9.267,66.116,27.543a69.053,69.053,0,0,1,11.019,21.866A93.016,93.016,0,0,0,264.4,83.528a6.947,6.947,0,0,0-10.118,4.281c-.081.28-8.7,28.333-63.1,52.934-20.351,9.2-36.752,11.015-48.751,5.385a31.556,31.556,0,0,1-16.241-18.687l-.008-.026c-.433-2.151-.75-3.874-.909-4.955C122.787,105.476,135.094,84.807,141.444,77.459Zm7.307,148.589a7.048,7.048,0,0,0-7-6.719l-.28,0c-8.36,0-20.332-13.036-24.962-32.629-1.435-6.083.453-10.226,2.815-11.5,2.676-1.446,5.524,1.093,6.624,2.253a7,7,0,0,0,10.813-8.833c-.85-1.574-2.2-6.026-3.679-11.606,1,.583,2.044,1.14,3.139,1.663a49.639,49.639,0,0,0,21.643,4.635c11.559,0,24.629-3.274,39.088-9.813,43.133-19.507,60.478-41.645,67.089-53.508a82.168,82.168,0,0,1,9.028,7.651c9.813,9.655,14.806,19.738,14.85,29.968-1.037,12.655-2.639,27.669-4.066,31.314a7,7,0,0,0,11.192,8.336c1.3-1.48,3.834-3.775,6.233-2.541,2.59,1.334,4.459,5.881,3.022,11.981-4.658,19.713-16.744,32.774-25.109,32.63a7.005,7.005,0,0,0-7.132,6.8c-.3,5.761-3.034,35.248-27.093,50.12-9.333,5.764-20.961,8.686-34.561,8.686-13.553,0-25.151-2.986-34.475-8.878C152.3,261.141,149.144,231.781,148.751,226.048Z" style="fill:#1ae5be"/><path d="M404.566,292.931a36.319,36.319,0,0,0-29.334,14.91,36.306,36.306,0,0,0-29.343-14.934c-12.078,0-21.918,4.977-28.455,14.392-5.083,7.32-7.883,17.1-7.883,27.525,0,45.033,59.347,83.961,61.873,85.6a7,7,0,0,0,7.624-.012c2.526-1.645,61.856-40.817,61.856-85.591C440.9,314.513,428.169,292.931,404.566,292.931Zm-29.35,113.09c-12.545-9-51.665-39.618-51.665-71.2,0-4.662,1.077-27.917,22.338-27.917a22.371,22.371,0,0,1,22.338,22.356,7,7,0,1,0,14,0,22.361,22.361,0,0,1,22.339-22.332c16.274,0,22.338,17.105,22.338,27.887C426.9,366.207,387.758,396.972,375.216,406.021Z" style="fill:#0635c9"/><path d="M375.229,239.343A117.883,117.883,0,1,0,493.113,357.226,118.016,118.016,0,0,0,375.229,239.343Zm0,221.765A103.883,103.883,0,1,1,479.113,357.226,104,104,0,0,1,375.229,461.108Z" style="fill:#0635c9"/></svg>
